<?xml version="1.0" standalone="no"?>
<!DOCTYPE svg PUBLIC "-//W3C//DTD SVG 20010904//EN"
 "http://www.w3.org/TR/2001/REC-SVG-20010904/DTD/svg10.dtd">
<svg xmlns="http://www.w3.org/2000/svg" version="1.0" width="300.000000pt" height="300.000000pt" viewBox="0 0 300.000000 300.000000" preserveAspectRatio="xMidYMid meet">

<g transform="translate(0.000000,300.000000) scale(0.100000,-0.100000)" stroke="none">
<path d="M1429 2960 c-100 -17 -195 -77 -251 -158 -57 -83 -68 -129 -72 -291 -3 -163 -19 -228 -81 -331 -32 -53 -107 -134 -167 -179 -86 -67 -259 -118 -364 -107 -280 29 -496 -187 -453 -452 55 -348 509 -452 712 -162 53 77 67 132 67 275 0 77 6 142 15 180 48 185 193 345 371 412 60 23 90 27 234 32 154 6 169 8 222 34 84 41 152 107 190 185 31 62 33 73 33 172 0 97 -2 110 -31 170 -54 114 -149 189 -270 215 -75 16 -87 16 -155 5z" fill="#182f53"/>
<path d="M2490 2950 c-159 -34 -287 -168 -308 -325 -23 -180 57 -334 216 -412 72 -36 81 -38 172 -38 87 0 101 3 160 32 84 41 155 111 194 193 28 59 31 74 31 165 0 91 -3 106 -31 165 -40 83 -100 142 -188 185 -79 38 -168 51 -246 35z" fill="#0597db"/>
<path d="M340 2939 c-154 -30 -287 -171 -308 -326 -23 -180 56 -331 216 -410 72 -36 81 -38 172 -38 88 0 101 3 162 33 88 43 152 106 191 190 29 61 32 75 32 167 0 93 -2 105 -33 167 -55 112 -164 196 -284 218 -58 11 -86 11 -148 -1z" fill="#0597db"/>
<path d="M1407 1879 c-93 -22 -183 -87 -238 -171 -48 -74 -58 -123 -63 -288 -2 -103 -8 -150 -24 -201 -54 -165 -196 -308 -368 -371 -47 -17 -91 -23 -220 -27 -161 -6 -161 -6 -237 -44 -294 -145 -293 -555 2 -700 61 -30 72 -32 171 -32 99 0 110 2 172 33 79 39 149 111 187 192 23 49 26 72 32 220 7 185 24 249 94 355 112 167 329 278 517 262 190 -16 351 71 426 231 24 50 27 69 27 157 0 92 -3 105 -32 165 -17 36 -43 77 -56 92 -101 109 -253 159 -390 127z" fill="#0597db"/>
<path d="M2477 1880 c-84 -22 -173 -83 -222 -154 -57 -84 -67 -124 -70 -286 -2 -128 -5 -154 -29 -220 -51 -144 -155 -266 -286 -334 -97 -51 -130 -58 -305 -65 -152 -6 -163 -8 -227 -38 -296 -139 -301 -562 -9 -706 63 -30 71 -32 181 -32 112 0 117 1 177 34 77 42 146 113 181 189 24 52 27 69 29 203 3 172 26 264 93 366 114 174 332 285 525 269 190 -16 339 63 417 222 31 62 33 74 33 167 0 92 -3 106 -32 167 -64 137 -186 217 -336 224 -45 2 -99 -1 -120 -6z" fill="#182f53"/>
<path d="M2473 805 c-185 -57 -309 -255 -275 -437 25 -133 102 -235 222 -292 87 -41 206 -48 293 -18 166 59 276 220 264 387 -7 92 -19 130 -66 202 -44 69 -132 134 -214 158 -61 18 -167 18 -224 0z" fill="#0597db"/>
</g>
</svg>